<?xml version="1.0" encoding="UTF-8" standalone="no"?>
<!-- Created with Inkscape (http://www.inkscape.org/) -->

<svg
   xmlns:dc="http://purl.org/dc/elements/1.1/"
   xmlns:cc="http://creativecommons.org/ns#"
   xmlns:rdf="http://www.w3.org/1999/02/22-rdf-syntax-ns#"
   xmlns:svg="http://www.w3.org/2000/svg"
   xmlns="http://www.w3.org/2000/svg"
   xmlns:sodipodi="http://sodipodi.sourceforge.net/DTD/sodipodi-0.dtd"
   xmlns:inkscape="http://www.inkscape.org/namespaces/inkscape"
   width="819.99994"
   height="1532"
   id="svg3970"
   version="1.1"
   inkscape:version="0.48.1 "
   sodipodi:docname="Banner of the Galactic Empire (SWG).svg">
  <defs
     id="defs3972" />
  <sodipodi:namedview
     id="base"
     pagecolor="#ffffff"
     bordercolor="#666666"
     borderopacity="1.0"
     inkscape:pageopacity="0.0"
     inkscape:pageshadow="2"
     inkscape:zoom="0.175"
     inkscape:cx="335.91125"
     inkscape:cy="1357.9907"
     inkscape:document-units="px"
     inkscape:current-layer="layer1"
     showgrid="false"
     fit-margin-top="0"
     fit-margin-left="0"
     fit-margin-right="0"
     fit-margin-bottom="0"
     inkscape:window-width="1440"
     inkscape:window-height="838"
     inkscape:window-x="-8"
     inkscape:window-y="-8"
     inkscape:window-maximized="1" />
  <metadata
     id="metadata3975">
    <rdf:RDF>
      <cc:Work
         rdf:about="">
        <dc:format>image/svg+xml</dc:format>
        <dc:type
           rdf:resource="http://purl.org/dc/dcmitype/StillImage" />
        <dc:title />
      </cc:Work>
    </rdf:RDF>
  </metadata>
  <g
     inkscape:label="Layer 1"
     inkscape:groupmode="layer"
     id="layer1"
     transform="translate(224.28569,182.20924)">
    <path
       style="color:#000000;fill:#000000;fill-opacity:1;fill-rule:evenodd;stroke:#000000;stroke-width:0;stroke-opacity:1;marker:none;visibility:visible;display:inline;overflow:visible;enable-background:accumulate"
       d="m -224.28569,1349.7907 819.99996,0 0,-1531.99994 -819.99996,0 z"
       id="rect2987-0-17"
       inkscape:connector-curvature="0"
       sodipodi:nodetypes="ccccc" />
    <path
       inkscape:connector-curvature="0"
       style="color:#000000;fill:#999999;fill-opacity:1;fill-rule:evenodd;stroke:#3a3d42;stroke-width:29.06999969;stroke-miterlimit:4;stroke-opacity:1;stroke-dasharray:none;marker:none;visibility:visible;display:inline;overflow:visible;enable-background:accumulate"
       d="m -197.27409,1227.395 c 53.51596,0 96.89926,43.3832 96.89926,96.8992 l 572.1899,0 c 0,-53.516 43.3832,-96.8992 96.8992,-96.8992 l 0,-1287.193741 c -53.516,0 -96.8992,-43.383299 -96.8992,-96.899299 l -572.1899,0 c 0,53.516 -43.3833,96.899299 -96.89926,96.899299 z"
       id="rect2987-4-2"
       sodipodi:nodetypes="ccccccccc" />
    <path
       inkscape:connector-curvature="0"
       style="color:#000000;fill:#999999;fill-opacity:1;fill-rule:evenodd;stroke:#c2c5c8;stroke-width:19.37984467;stroke-miterlimit:4;stroke-opacity:1;stroke-dasharray:none;marker:none;visibility:visible;display:inline;overflow:visible;enable-background:accumulate"
       d="m -197.27409,1227.395 c 53.51596,0 96.89926,43.3832 96.89926,96.8992 l 572.1899,0 c 0,-53.516 43.3832,-96.8992 96.8992,-96.8992 l 0,-1287.193741 c -53.516,0 -96.8992,-43.383299 -96.8992,-96.899299 l -572.1899,0 c 0,53.516 -43.3833,96.899299 -96.89926,96.899299 z"
       id="rect2987-4-3"
       sodipodi:nodetypes="ccccccccc" />
    <path
       style="color:#000000;fill:#687079;fill-opacity:1;fill-rule:evenodd;stroke:#3a3d42;stroke-width:10;stroke-miterlimit:4;stroke-opacity:1;stroke-dasharray:none;marker:none;visibility:visible;display:inline;overflow:visible;enable-background:accumulate"
       d="m -197.28569,1227.3936 c 53.51676,0 96.90066,43.3838 96.90066,96.9006 l 572.1986,0 c 0,-53.5168 43.3839,-96.9006 96.9007,-96.9006 l 0,-1287.205641 c -53.5168,0 -96.9007,-43.383899 -96.9007,-96.900699 l -572.1986,0 c 0,53.5168 -43.3839,96.900699 -96.90066,96.900699 z"
       id="rect2987-6"
       inkscape:connector-curvature="0"
       sodipodi:nodetypes="ccccccccc" />
    <path
       style="color:#000000;fill:#687079;fill-opacity:1;fill-rule:evenodd;stroke:none;stroke-width:6;stroke-miterlimit:4;stroke-opacity:1;stroke-dasharray:none;marker:none;visibility:visible;display:inline;overflow:visible;enable-background:accumulate"
       d="m -197.28569,1227.3936 c 53.51676,0 96.90066,43.3838 96.90066,96.9006 l 572.1986,0 c 0,-53.5168 43.3839,-96.9006 96.9007,-96.9006 l 0,-1287.205641 c -53.5168,0 -96.9007,-43.383899 -96.9007,-96.900699 l -572.1986,0 c 0,53.5168 -43.3839,96.900699 -96.90066,96.900699 z"
       id="rect2987"
       inkscape:connector-curvature="0"
       sodipodi:nodetypes="ccccccccc" />
    <path
       style="color:#000000;fill:#c2c5c8;fill-opacity:1;fill-rule:evenodd;stroke:none;stroke-width:12;marker:none;visibility:visible;display:inline;overflow:visible;enable-background:accumulate"
       d="m 279.87197,-156.71274 -188.315403,0 0,1481.01414 188.315403,0 z"
       id="rect3003-1"
       inkscape:connector-curvature="0"
       sodipodi:nodetypes="ccccc" />
    <path
       inkscape:connector-curvature="0"
       style="color:#000000;fill:#3a3d42;fill-opacity:1;fill-rule:evenodd;stroke:none;stroke-width:1;marker:none;visibility:visible;display:inline;overflow:visible;enable-background:accumulate"
       d="m 294.52677,1324.4192 0,-1481.13194 -19.6563,0 0,1481.13194 z"
       id="path4071"
       sodipodi:nodetypes="ccccc" />
    <path
       inkscape:connector-curvature="0"
       style="color:#000000;fill:#3a3d42;fill-opacity:1;fill-rule:evenodd;stroke:none;stroke-width:1;marker:none;visibility:visible;display:inline;overflow:visible;enable-background:accumulate"
       d="m 96.557967,1324.4192 0,-1481.13194 -19.6562,0 0,1481.13194 z"
       id="rect3023-5"
       sodipodi:nodetypes="ccccc" />
    <path
       style="color:#000000;fill:#c2c5c8;fill-opacity:1;fill-rule:evenodd;stroke:none;stroke-width:1;marker:none;visibility:visible;display:inline;overflow:visible;enable-background:accumulate"
       d="m 288.22657,-156.71274 -7.0591,0 0,1481.11194 7.0591,0 z"
       id="rect3023"
       inkscape:connector-curvature="0"
       sodipodi:nodetypes="ccccc" />
    <path
       style="color:#000000;fill:#000000;fill-opacity:1;fill-rule:evenodd;stroke:#000000;stroke-width:0.88881809;stroke-opacity:1;marker:none;visibility:visible;display:inline;overflow:visible;enable-background:accumulate"
       d="m 220.49777,-156.26833 -69.567,0 0,1481.11813 69.567,0 z"
       id="rect3003"
       inkscape:connector-curvature="0"
       sodipodi:nodetypes="ccccc" />
    <path
       inkscape:connector-curvature="0"
       style="color:#000000;fill:#c2c5c8;fill-opacity:1;fill-rule:evenodd;stroke:none;stroke-width:1;marker:none;visibility:visible;display:inline;overflow:visible;enable-background:accumulate"
       d="m 90.261067,-156.71274 -7.0591,0 0,1481.11194 7.0591,0 z"
       id="rect3023-0"
       sodipodi:nodetypes="ccccc" />
    <g
       transform="matrix(-1.1109192,0,0,-1.1109192,676.10579,929.21285)"
       id="l1"
       style="stroke:#000000;stroke-opacity:1">
      <path
         style="fill:#3a3d42;fill-opacity:1;stroke:none"
         d="m 441.42857,22.754807 c -159.07477,0 -288.17872,129.104113 -288.1788,288.178803 0,159.07477 129.10403,288.17859 288.1788,288.1788 159.07477,0 288.17872,-129.10397 288.1788,-288.1788 0,-159.07477 -129.10403,-288.178879 -288.1788,-288.178803 z"
         id="path3798"
         inkscape:connector-curvature="0" />
    </g>
    <path
       inkscape:connector-curvature="0"
       style="fill:#ffffff;fill-opacity:1;stroke:none"
       d="m 185.71427,898.02891 c 173.45955,0 314.23806,-140.77875 314.23815,-314.23818 0,-173.45954 -140.7786,-314.23788 -314.23815,-314.23812 -173.459551,0 -314.23805,140.77858 -314.23815,314.23812 0,173.45954 140.778599,314.23827 314.23815,314.23818 z"
       id="path3798-2" />
    <path
       style="fill:#000000;fill-opacity:1;stroke:none"
       d="M 193.84988,884.74031 C 298.91038,881.94474 390.69834,825.4452 442.40446,741.53199 L 421.02234,729.0504 c -8.04935,12.90306 -16.99683,25.25071 -26.94495,36.64519 L 369.6356,744.55681 c -34.91858,39.92031 -82.77169,68.29006 -136.84579,78.88798 l 6.36253,32.05585 c -14.73231,2.88591 -29.8414,4.40382 -45.30246,4.83274 l 0,24.40693 z m -16.27122,0 0,-24.40693 c -15.46106,-0.42892 -30.57014,-1.94683 -45.30246,-4.83274 l 6.36253,-32.05585 C 84.564634,812.84687 36.711519,784.47712 1.792939,744.55681 l -24.44179,21.13878 c -9.94802,-11.39448 -18.8955,-23.74213 -26.944945,-36.64519 l -21.382125,12.48159 C -19.269796,825.4452 72.518254,881.94484 177.57866,884.74031 z m 8.13561,-111.67395 c 12.49602,0 24.82417,-1.26547 36.64521,-3.58119 l -17.83597,-89.77021 c 21.70209,-4.26898 40.75415,-15.74486 54.72447,-31.81255 l 68.94454,60.28727 c 15.97786,-18.30106 28.58683,-39.62574 36.61043,-63.10345 L 278.05741,615.3251 c 3.35578,-9.86783 5.3542,-20.53621 5.3542,-31.53437 0,-11.08266 -1.94874,-21.60154 -5.3542,-31.53437 l 86.50206,-29.76113 c -8.03377,-23.45545 -20.39194,-44.82082 -36.36695,-63.10345 l -68.94454,60.28727 c -13.95835,-15.9924 -33.08822,-27.27711 -54.72447,-31.53437 l 17.83597,-89.80504 c -11.82114,-2.31584 -24.14919,-3.82453 -36.64521,-3.82453 -12.49601,0 -24.82416,1.50881 -36.64511,3.82453 l 17.83587,89.80504 c -21.63625,4.25726 -40.76611,15.54197 -54.72446,31.53437 L 43.236024,459.39178 c -15.97482,18.28251 -28.33318,39.64812 -36.36695,63.10345 l 86.50206,29.76113 c -3.405465,9.93271 -5.3542,20.45171 -5.3542,31.53437 0,10.99816 1.99842,21.66654 5.3542,31.53437 L 6.625589,645.08623 c 8.023605,23.47784 20.632385,44.80239 36.610435,63.10345 l 68.944546,-60.28727 c 13.97032,16.06769 33.02238,27.54357 54.72446,31.81255 l -17.83587,89.77021 c 11.82104,2.31572 24.1491,3.58119 36.64511,3.58119 z m 264.8259,-45.78921 c 23.19349,-42.67783 36.36704,-91.528 36.36704,-143.48642 0,-51.95842 -13.17355,-100.80858 -36.36704,-143.48642 l -21.38222,12.48159 c 7.14001,13.23583 13.38398,27.02443 18.32265,41.44313 l -30.76946,10.4303 c 8.52169,24.84219 13.21165,51.41104 13.21165,79.1314 0,27.65537 -4.48476,54.33901 -12.96826,79.1314 l 30.80423,10.4303 c -4.96964,14.54151 -11.33806,28.40086 -18.60081,41.72131 l 21.38222,12.20341 z m -529.651796,0 21.38222,-12.20341 c -7.26275,-13.32045 -13.63117,-27.1798 -18.60081,-41.72131 l 30.80432,-10.4303 c -8.483595,-24.79226 -12.968355,-51.47603 -12.968355,-79.1314 0,-27.72036 4.68996,-54.28921 13.21165,-79.1314 l -30.769455,-10.4303 c 4.93867,-14.4187 11.18264,-28.2073 18.32265,-41.44313 l -21.38222,-12.48159 c -23.193484,42.67784 -36.367044,91.52812 -36.367044,143.48642 0,51.95842 13.17356,100.80859 36.367044,143.48642 z M 421.3005,438.77442 442.64795,426.32765 C 390.97564,342.24976 299.0354,285.64004 193.84988,282.84122 l 0,24.40683 c 15.46106,0.48371 30.57015,2.22498 45.30246,5.11095 l -6.36253,32.05578 c 54.0702,10.59955 101.9294,38.93531 136.84579,78.85334 l 24.44179,-21.38225 c 10.06316,11.51682 19.15884,23.81085 27.22311,36.88855 z m -471.172456,0 c 8.064265,-13.0777 17.159945,-25.37173 27.223105,-36.88855 l 24.44179,21.38225 C 36.709334,383.35009 84.568529,355.01433 138.63873,344.41478 L 132.2762,312.359 c 14.73232,-2.88597 29.8414,-4.62724 45.30246,-5.11095 l 0,-24.40683 C 72.393139,285.64017 -19.546911,342.24976 -71.219311,426.32765 l 21.347355,12.44677 z"
       id="path3796"
       inkscape:connector-curvature="0" />
  </g>
</svg>
