<?xml version="1.0" encoding="UTF-8" standalone="no"?>
<!DOCTYPE svg PUBLIC "-//W3C//DTD SVG 1.0//EN"
	"http://www.w3.org/TR/2001/REC-SVG-20010904/DTD/svg10.dtd">
<svg
   xmlns:svg="http://www.w3.org/2000/svg"
   xmlns="http://www.w3.org/2000/svg"
   version="1.0"
   width="614.30908"
   height="600"
   id="svg2409">
  <defs
     id="defs2411" />
  <g
     transform="translate(-51.999999,-243.375)"
     id="layer1">
    <path
       d="M 348.11805,243.38227 C 184.30374,245.45959 51.999999,379.07438 51.999999,543.37862 C 51.999999,708.9766 186.39837,843.37498 351.99636,843.37498 C 517.59434,843.37498 651.99269,708.97661 651.99271,543.37862 C 651.99271,377.78063 517.59434,243.38227 351.99636,243.38227 C 350.70262,243.38227 349.40793,243.36591 348.11805,243.38227 z "
       style="fill:#1f362e;fill-opacity:1;stroke:none;stroke-width:4;stroke-linecap:round;stroke-linejoin:round;stroke-opacity:1"
       id="path2179" />
    <path
       d="M 303.75,42.96875 C 283.74256,42.96419 263.37438,45.449109 242.5625,50.375 C 105.99626,82.69837 21.395389,219.74624 53.71875,356.3125 L 430.4375,78.84375 C 389.92748,54.91154 347.76636,42.978799 303.75,42.96875 z M 613.8125,50.8125 C 609.91172,50.87789 584.3526,57.43978 577.65625,61.625 C 570.51346,66.089231 554.25282,92.48872 549.09375,95.53125 C 524.25125,110.18196 501.04288,125.13282 478.6875,140.4375 C 475.20449,133.10401 473.21875,124.724 473.21875,115.84375 C 473.21876,108.31088 474.63014,101.16419 477.1875,94.6875 C 464.18707,102.30656 455.34375,117.21651 455.34375,134.375 C 455.34374,141.35251 456.82854,147.94508 459.4375,153.84375 C 438.66215,168.55097 418.48157,183.62704 398.25,199.03125 C 393.68129,190.48522 391.03125,180.51839 391.03125,169.875 C 391.03124,159.59009 393.49548,149.94376 397.78125,141.59375 C 382.21249,150.29957 371.59375,167.77763 371.59375,187.9375 C 371.59376,197.56187 374.02196,206.56705 378.25,214.3125 C 356.80851,230.81932 335.06292,247.75064 312.3125,265.15625 C 307.22774,256.16791 304.28125,245.82449 304.28125,234.8125 C 304.28125,222.11229 308.16366,210.30344 314.78125,200.4375 C 295.49892,210.20409 282.125,231.32589 282.125,255.8125 C 282.125,265.75203 284.34443,275.13757 288.25,283.4375 C 280.97515,288.91706 273.60443,294.42553 266.0625,300 C 255.56431,307.75951 238.99046,321.83929 218.9375,339.6875 C 214.80561,330.90954 212.5,321.08927 212.5,310.71875 C 212.5,292.45815 219.70046,275.86448 231.34375,263.71875 C 203.57868,271.32116 183.03124,298.32262 183.03125,330.375 C 183.03125,342.78642 186.11265,354.41418 191.5,364.46875 C 169.00103,385.04187 144.21067,408.23064 119.375,431.875 C 112.1859,419.67518 108.03125,405.24022 108.03125,389.75 C 108.03125,374.2285 112.22164,359.74655 119.4375,347.53125 C 94.25857,360.09633 76.78125,387.45214 76.78125,419.1875 C 76.781249,434.81018 81.04104,449.35985 88.34375,461.625 C 55.767228,493.07656 25.2092,523.31522 2.6875,546.4375 L 22.3125,573.21875 C 55.192354,539.27825 82.20237,509.55154 106.6875,482.71875 C 118.92643,492.43708 134.05238,498.21876 150.4375,498.21875 C 176.6317,498.21873 199.62673,483.49068 212.6875,461.375 C 203.26032,466.07945 192.7639,468.75 181.6875,468.75 C 164.23003,468.75001 148.19012,462.21237 135.5625,451.3125 C 158.89539,426.23472 180.96534,403.63563 205.1875,382.25 C 216.47431,392.74159 231.19527,399.12501 247.3125,399.125 C 266.37622,399.125 283.5055,390.20526 295.28125,376.09375 C 290.07707,377.4207 284.60856,378.125 279,378.125 C 260.83959,378.12501 244.41354,370.71842 232.40625,358.75 C 250.89885,342.80196 273.55755,323.21318 300.1875,300.53125 C 310.31616,310.71833 323.91385,316.96876 338.84375,316.96875 C 355.97604,316.96874 371.31999,308.72058 381.71875,295.75 C 377.22399,296.7452 372.57975,297.3125 367.78125,297.3125 C 350.88595,297.31251 335.53428,290.79888 324.15625,280.1875 C 344.57831,262.93594 366.15647,244.93864 388,227.03125 C 396.57305,235.20025 407.80759,240.1875 420.15625,240.1875 C 432.99249,240.1875 444.6555,234.78324 453.34375,226.03125 C 449.9542,226.8046 446.43907,227.25 442.84375,227.25 C 429.01006,227.25 416.45312,221.20194 407.15625,211.40625 C 427.06557,195.27814 446.96356,179.5135 466.1875,164.71875 C 473.78296,173.77758 484.71347,179.46876 496.875,179.46875 C 507.45921,179.46874 517.1021,175.15157 524.4375,168.0625 C 522.99666,168.21215 521.53803,168.3125 520.0625,168.3125 C 506.048,168.31249 493.46201,161.39934 484.875,150.46875 C 511.42262,130.51345 536.15537,113.03518 557.125,100 C 570.62579,91.6076 585.70542,87.49548 591.0625,83.03125 C 596.41956,78.567021 615.1741,51.7991 614.28125,50.90625 C 614.22544,50.850448 614.07255,50.80814 613.8125,50.8125 z M 541.03125,213.65625 L 184.09375,523.46875 C 248.77075,556.99815 316.46862,561.78639 385.21875,537.6875 C 517.65739,491.26396 587.45474,346.0949 541.03125,213.65625 z "
       transform="translate(51.999999,243.375)"
       style="fill:#eeeecc;fill-opacity:1;stroke:none;stroke-width:4;stroke-linecap:round;stroke-linejoin:round;stroke-opacity:1"
       id="path2177" />
    <path
       d="M 231.01568,324.68708 C 201.99818,400.51177 195.74825,386.22623 195.74825,409.45168 C 195.74825,429.13284 211.74806,445.16553 231.46211,445.16553 C 251.17615,445.16553 267.17596,429.14133 267.17596,409.45168 C 267.17596,388.90477 246.64049,364.79792 231.01568,324.68708 z "
       style="fill:#71241e;fill-opacity:1;stroke:none;stroke-width:4;stroke-linecap:round;stroke-linejoin:round;stroke-opacity:1"
       id="path2514" />
    <path
       d="M 509.41632,588.49526 C 505.24873,588.62395 500.16095,589.32124 493.95892,590.69948 C 485.9233,592.48517 478.78053,601.41363 436.81675,629.09187 L 454.67368,637.12748 C 454.67368,637.12748 481.75182,610.66897 495.74461,597.84225 C 506.45877,588.02094 519.85146,596.05655 513.60154,612.12779 C 507.34011,628.22859 502.16809,641.90948 496.49795,655.84935 L 459.13791,667.48426 L 455.56653,686.23403 L 488.74135,674.23641 C 480.50407,693.07549 470.3087,714.21898 454.67368,743.37619 L 491.28038,735.34058 C 499.92158,708.33683 506.6019,687.8333 512.904,664.80572 L 546.63685,664.80572 L 550.20823,656.7701 L 514.8571,657.55134 C 518.28761,644.54868 521.64705,630.53376 525.20854,613.91348 C 527.46855,603.36673 531.92132,587.80034 509.41632,588.49526 z "
       style="fill:#71241e;fill-opacity:1;stroke:none;stroke-width:4;stroke-linecap:round;stroke-linejoin:round;stroke-opacity:1"
       id="path2556" />
  </g>
</svg>
