<?xml version="1.0" encoding="UTF-8" standalone="no"?>
<!DOCTYPE svg PUBLIC "-//W3C//DTD SVG 1.0//EN"
	"http://www.w3.org/TR/2001/REC-SVG-20010904/DTD/svg10.dtd">
<svg
   xmlns:svg="http://www.w3.org/2000/svg"
   xmlns="http://www.w3.org/2000/svg"
   version="1.0"
   width="600"
   height="748.96552"
   id="svg2">
  <defs
     id="defs4" />
  <g
     transform="translate(-49.844482,-15.783211)"
     id="layer1">
    <g
       transform="matrix(16.551724,0,0,16.551724,-4119.121,-9836.6305)"
       id="g2286">
      <path
         d="M 264,595.375 L 257,610.375 L 252,616.375 L 252,628.375 C 252.83801,630.88904 256,637.375 264,640.375 C 264,640.375 270,640.375 270,640.375 C 270,640.375 276,640.375 276,640.375 C 284,637.375 287.16199,630.88904 288,628.375 L 288,616.375 L 286.8125,614.9375 L 287,614.375 L 287,609.375 C 287,606.17532 283.16131,605.5182 281.625,607.4375 L 276,595.375 L 271,595.375 L 271,601.375 L 270,601.375 L 269,601.375 L 269,595.375 L 264,595.375 z "
         style="opacity:1;fill:#ffffff;fill-opacity:1;stroke:#000000;stroke-width:0.25;stroke-miterlimit:4;stroke-dasharray:none;stroke-opacity:1"
         id="path2267" />
      <path
         d="M 265,596.375 L 258,611.375 L 253,617.375 L 253,619.375 L 254,619.375 L 254,620.375 L 253,620.375 L 253,624.375 L 254,624.375 L 254.03125,625.375 L 253,625.375 L 253,628.375 C 253.83801,630.88904 257,636.375 265,639.375 C 265,639.375 270,639.375 270,639.375 C 270,639.375 275,639.375 275,639.375 C 283,636.375 286.16199,630.88904 287,628.375 L 287,625.375 L 285.96875,625.375 L 286,624.375 L 287,624.375 L 287,620.375 L 286,620.375 L 286,619.375 L 287,619.375 L 287,617.375 L 285.5625,615.65625 L 286,614.375 L 286,609.375 C 286,606.375 282,606.375 282,609.375 L 282,611.375 L 275,596.375 L 272,596.375 L 272,603.375 L 270,603.375 L 268,603.375 L 268,596.375 L 265,596.375 z "
         style="opacity:1;fill:#000000;fill-opacity:1;stroke:none;stroke-width:2;stroke-miterlimit:4;stroke-dasharray:none;stroke-opacity:1"
         id="path2269" />
      <g
         transform="matrix(4.0852338e-2,0,0,4.0852338e-2,246.42237,610.2236)"
         style="opacity:1;fill:#ffffff"
         id="g2264">
        <path
           d="M 577.14274,3.3922404 L 521.39108,65.279638 C 540.93548,93.300637 548.23908,126.99884 548.23908,143.92364 C 531.63848,114.64924 513.40228,106.19644 495.4463,94.089837 L 459.53476,133.95704 C 508.37198,150.90044 538.2723,208.70783 538.2723,268.50843 C 538.27232,297.41203 528.30552,366.18303 459.53476,363.19283 L 459.53476,362.91263 C 408.80909,356.90943 361.16789,297.96483 356.87697,233.62483 C 352.59883,169.47623 379.80055,107.04664 424.65105,55.219439 L 424.49531,55.219439 C 342.48137,104.01184 285.56993,191.00623 278.01483,292.27303 C 277.82969,294.75463 277.67315,297.25003 277.54765,299.74803 C 277.54497,299.80003 277.55029,299.85183 277.54765,299.90383 C 277.42181,302.43343 277.30011,304.98903 277.23619,307.53463 C 277.16989,310.12723 277.14275,312.74383 277.14275,315.35223 C 277.14275,480.95242 411.54271,615.35222 577.14274,615.35222 C 742.74275,615.35222 877.14275,480.95242 877.14275,315.35223 C 877.14275,307.58983 876.85055,299.88783 876.27055,292.27303 C 868.71555,191.00623 811.80415,104.01184 729.79015,55.219439 L 729.63435,55.219439 C 774.48495,107.04664 801.68655,169.47623 797.40855,233.62483 C 793.11755,297.96483 745.47635,356.90943 694.75076,362.91263 L 694.75076,363.19283 C 625.97996,366.18303 616.01316,297.41203 616.01316,268.50843 C 616.01316,208.70783 645.91356,150.90044 694.75076,133.95704 L 658.83916,94.089837 C 640.88316,106.19644 622.64696,114.64924 606.04636,143.92364 C 606.04636,126.99884 613.34996,93.300637 632.89436,65.279638 L 577.14274,3.3922404 z "
           style="opacity:1;fill:#ffffff;fill-opacity:1;stroke:none;stroke-width:3;stroke-miterlimit:4;stroke-dasharray:none;stroke-dashoffset:1.8;stroke-opacity:1;display:inline"
           id="path8305" />
      </g>
    </g>
  </g>
</svg>
