<?xml version="1.0" encoding="UTF-8" standalone="no"?>
<!-- Created with Inkscape (http://www.inkscape.org/) -->

<svg
   xmlns:dc="http://purl.org/dc/elements/1.1/"
   xmlns:cc="http://creativecommons.org/ns#"
   xmlns:rdf="http://www.w3.org/1999/02/22-rdf-syntax-ns#"
   xmlns:svg="http://www.w3.org/2000/svg"
   xmlns="http://www.w3.org/2000/svg"
   xmlns:sodipodi="http://sodipodi.sourceforge.net/DTD/sodipodi-0.dtd"
   xmlns:inkscape="http://www.inkscape.org/namespaces/inkscape"
   width="286"
   height="153"
   id="svg2"
   version="1.1"
   inkscape:version="0.48.1 "
   sodipodi:docname="star_wars_1977_us.svg">
  <defs
     id="defs4" />
  <sodipodi:namedview
     id="base"
     pagecolor="#ffffff"
     bordercolor="#666666"
     borderopacity="1.0"
     inkscape:pageopacity="0.0"
     inkscape:pageshadow="2"
     inkscape:zoom="0.70683594"
     inkscape:cx="350"
     inkscape:cy="182.09053"
     inkscape:document-units="px"
     inkscape:current-layer="layer1"
     showgrid="false"
     inkscape:window-width="1024"
     inkscape:window-height="716"
     inkscape:window-x="-8"
     inkscape:window-y="-8"
     inkscape:window-maximized="1" />
  <metadata
     id="metadata7">
    <rdf:RDF>
      <cc:Work
         rdf:about="">
        <dc:format>image/svg+xml</dc:format>
        <dc:type
           rdf:resource="http://purl.org/dc/dcmitype/StillImage" />
        <dc:title></dc:title>
      </cc:Work>
    </rdf:RDF>
  </metadata>
  <g
     inkscape:label="Ebene 1"
     inkscape:groupmode="layer"
     id="layer1"
     transform="translate(0,-899.36218)">
    <g
       id="text2985">
      <path
         d="m 244.35302,966.37431 -23.75198,0 -18.71676,-24.2406 8.78931,24.2406 -21.80344,0 -13.34187,-57.10963 31.07541,0 c 3.03881,1.3e-4 6.23871,2.22278 9.59971,6.66796 7.80985,10.41618 11.71488,17.68399 11.71511,21.80343 -2.3e-4,2.49488 -1.627,4.17726 -4.8803,5.04715 z m 36.61118,66.71529 c -2.8e-4,4.2308 -3.30744,6.3462 -9.92149,6.3462 l -42.95736,0 c -5.64126,0 -9.16691,-2.4948 -10.57696,-7.4843 l -5.69666,-19.5272 23.10843,0 c 0.97304,4.8823 3.24932,7.3235 6.82884,7.3234 2.71302,10e-5 4.06965,-0.7051 4.0699,-2.1153 -2.5e-4,-3.039 -1.35688,-5.3709 -4.0699,-6.9957 -2.27652,-1.5215 -4.98779,-2.2822 -8.13383,-2.2823 -1.30324,10e-5 -3.25575,0.081 -5.85755,0.2443 -2.60226,0.1629 -4.55477,0.2444 -5.85755,0.2443 -5.53401,1e-4 -9.76479,-1.8968 -12.69236,-5.6907 -1.41047,-1.8472 -3.17329,-6.56756 -5.28848,-14.16117 -2.11559,-7.5935 -3.17329,-12.74492 -3.17309,-15.45428 -2e-4,-2.92771 1.89869,-4.3916 5.69667,-4.39167 l 32.70813,0 c 5.20382,7e-5 8.72947,1.73409 10.57696,5.20208 l 8.13383,14.97459 -24.24656,0 c -1.08474,-3.14622 -3.25376,-4.71935 -6.50707,-4.71941 -1.62897,6e-5 -2.44335,0.43306 -2.44313,1.29903 -2.2e-4,1.73606 0.62347,3.28238 1.87108,4.63897 1.24716,1.35668 2.73886,2.03499 4.4751,2.03494 l 21.80344,0 c 4.88203,5e-5 9.81794,4.28446 14.80774,12.85322 3.25327,6.5071 6.50878,12.9605 9.76656,19.3603 2.38326,4.2308 3.57503,6.9977 3.57531,8.3007 z m -60.85179,6.3462 -26.85058,0 -16.27363,-28.6382 3.42038,28.6382 -25.3847,0 -1.13814,-70.29062 37.26069,0 c 4.33785,7e-5 8.18925,4.82673 11.55422,14.48001 2.71306,7.91737 4.06969,14.64292 4.06989,20.17671 -2e-4,1.8433 -0.86821,3.2535 -2.60402,4.2307 -1.73621,0.9773 -3.58146,1.3567 -5.53577,1.1382 z m -33.84627,-73.06149 -20.33756,0 -1.1441,-10.24922 -10.24923,0 -3.25353,10.24922 -40.84197,0 10.73785,-44.9059 -23.269314,0 c -3.360886,1.2e-4 -5.04128,1.19189 -5.041188,3.57531 -9.2e-5,1.08462 2.115298,1.6825 6.346177,1.79361 -4.88238,-0.11111 -2.33398,-0.16673 7.645205,-0.16684 6.07394,1.1e-4 9.11097,1.46599 9.11108,4.39763 -1.1e-4,0.43312 -0.10737,1.08263 -0.32177,1.94854 l -6.50707,26.52285 c -1.08859,4.55661 -4.93999,6.83488 -11.554212,6.8348 l -35.800779,0 c -5.20412,8e-5 -7.806149,-1.46381 -7.806096,-4.39167 -5.3e-5,-2.82044 1.028841,-5.9111 3.086685,-9.27197 1.954445,-2.60592 3.90696,-5.26356 5.857551,-7.97295 l 21.320771,0 c -0.762816,1.19187 -1.144182,2.49288 -1.1441,3.90305 -8.2e-5,0.97734 0.977168,1.46597 2.931755,1.46588 1.954416,9e-5 3.555359,-0.8411 4.802834,-2.52357 1.247295,-1.68229 1.870988,-3.49875 1.87108,-5.44937 -9.2e-5,-0.97716 -1.140218,-1.46578 -3.420381,-1.46588 l -13.991383,0 c -4.556605,10e-5 -6.83487,-1.41016 -6.834803,-4.23079 -6.7e-5,-2.28014 1.463822,-6.13154 4.391674,-11.55421 2.494698,-4.77093 4.772963,-8.29658 6.834802,-10.57696 2.927701,-3.36066 5.801851,-5.04106 8.622458,-5.04119 l 63.789504,0 -4.88626,12.20373 -8.29472,0 -5.53577,38.0711 20.50441,-50.27483 19.84893,0 z m -34.16806,73.06149 -22.94754,0 0.81637,-13.6696 -12.37058,0 -9.27197,13.6696 -24.07972,0 43.44599,-70.29062 23.91883,0 z m -27.5001,-70.29062 -43.773721,70.29062 -24.407455,0 6.995691,-33.6794 -27.172362,33.6794 -27.5000996,0 40.3533416,-70.29062 17.089986,0 -14.974594,29.44864 26.689696,-29.44864 13.991383,0 -6.673913,29.44864 20.832147,-29.44864 z m 78.59129,-43.61283 c -2e-4,-2.60192 -1.46409,-3.90293 -4.39167,-3.90305 -2e-4,1.2e-4 -1.24957,0.10936 -3.74812,0.32774 l 1.63273,4.88029 c 1.84307,0.21464 2.98121,0.32189 3.41442,0.32178 2.06156,1.1e-4 3.09244,-0.54214 3.09264,-1.62676 z m -39.54293,17.90039 -1.29903,-10.57697 -3.58127,10.57697 z m 18.71675,45.88911 c -1.8e-4,-2.82047 -1.51969,-4.23073 -4.55852,-4.23078 -1.8e-4,5e-5 -1.46407,0.10731 -4.39168,0.32177 l 0.97725,6.18529 c 2.05762,0.10731 3.41226,0.16094 4.06394,0.16089 2.60582,5e-5 3.90883,-0.81234 3.90901,-2.43717 z m -50.76942,11.22645 -6.8348,11.876 6.18529,0 z"
         style="font-family:SF Distant Galaxy Symbols;-inkscape-font-specification:SF Distant Galaxy Symbols"
         id="path2990"
         inkscape:connector-curvature="0" />
    </g>
  </g>
</svg>
