<?xml version="1.0" encoding="UTF-8" standalone="no"?>
<!-- Created with Inkscape (http://www.inkscape.org/) -->

<svg
   xmlns:dc="http://purl.org/dc/elements/1.1/"
   xmlns:cc="http://creativecommons.org/ns#"
   xmlns:rdf="http://www.w3.org/1999/02/22-rdf-syntax-ns#"
   xmlns:svg="http://www.w3.org/2000/svg"
   xmlns="http://www.w3.org/2000/svg"
   version="1.1"
   width="284"
   height="360"
   id="svg2">
  <defs
     id="defs4" />
  <metadata
     id="metadata7">
    <rdf:RDF>
      <cc:Work
         rdf:about="">
        <dc:format>image/svg+xml</dc:format>
        <dc:type
           rdf:resource="http://purl.org/dc/dcmitype/StillImage" />
        <dc:title></dc:title>
      </cc:Work>
    </rdf:RDF>
  </metadata>
  <g
     transform="translate(-233,-352.36218)"
     id="layer1">
    <path
       d="m 150,296 6,9 3,-7 3,4 0,17 c 11.96905,-4.5 12,-38 14.5,-55.25 2.62641,-18.12221 -0.5,-52.75 46.25,-84.75 -5.04577,-13.41829 -6.821,-28.09449 -1.5,-45.5 15.84095,1.89594 30.66009,6.01431 36,30.75 L 240,169 c 6.33464,13.0956 9.66881,26.57573 7.5,41 l -15.5,-4 -3.5,19 -10.5,-4 -5,19 -11,-4 15,12 5,-16 14,3 4,-20.25 15,8.25 c 0.14454,-11.37825 3.95917,-32.99887 -5,-48 l 15,3 c 2.2672,-12.54391 -1.35096,-22.28526 -4.5,-32.25 l 12.75,5.5 C 273,137 256.2342,118.97084 238.25,118 226.75737,117.3796 206.00396,103.69587 207.5,88.5 208.61194,77.205518 217.41705,64.275342 232,60.25 207,81 226.5,98.5 235,102 c 2.5,-6.5 9.97135,-39.259556 0,-74 -23,13 -51,37 -53,84 l -33,22 -2,53 61,-34 4,4 -10,2 -25,22 -9,-3 -16,28 -2,68 12,9 -18.5,9 -18.5,-9 12,-9 -2,-68 -16,-28 -9,3 -25,-22 -10,-2 4,-4 61,34 -2,-53 -33,-22 C 103,65 75,41 52,28 c -9.97135,34.74044 -2.5,67.5 0,74 8.5,-3.5 28,-21 3,-41.75 14.58295,4.02534 23.38806,16.95552 24.5,28.25 1.49604,15.19587 -19.25737,28.8796 -30.75,29.5 -17.9842,0.97084 -34.75,19 -35,33.25 l 12.75,-5.5 C 23.35096,155.71474 19.7328,165.45609 22,178 l 15,-3 c -8.95917,15.00113 -5.14454,36.62175 -5,48 l 15,-8.25 4,20.25 14,-3 5,16 15,-12 -11,4 -5,-19 -10.5,4 -3.5,-19 -15.5,4 c -2.16881,-14.42427 1.16536,-27.9044 7.5,-41 l -17.25,-4.75 c 5.33991,-24.73569 20.15905,-28.85406 36,-30.75 5.321,17.40551 3.54577,32.08171 -1.5,45.5 46.75,32 43.62359,66.62779 46.25,84.75 C 113,281 113.03095,314.5 125,319 l 0,-17 3,-4 3,7 6,-9 6.5,12 z"
       transform="translate(233,352.36218)"
       id="path2998"
       style="fill:#28332c;fill-opacity:1;stroke:none" />
    <path
       d="m 195,242 -9,-6 c 4.24516,-2.47796 7.81984,-4.78829 11,-7 -0.34566,4.11933 -0.1605,7.88478 -2,13 z"
       transform="translate(233,352.36218)"
       id="path3028"
       style="fill:#28332c;fill-opacity:1;stroke:none" />
    <path
       d="m 211,214 c -0.22519,6.21629 -0.51006,12.31322 -1,18 -4.4595,-1.05763 -8.84841,-2.15762 -12,-4 4.68329,-4.49169 8.83619,-9.24857 13,-14 z"
       transform="translate(233,352.36218)"
       id="path3030"
       style="fill:#28332c;fill-opacity:1;stroke:none" />
    <path
       d="m 225,217 c -0.01,-7.63166 -1.16754,-13.7581 -3,-19 -3.05727,5.16667 -6.38225,10.33333 -10.5,15.5 z"
       transform="translate(233,352.36218)"
       id="path3032"
       style="fill:#28332c;fill-opacity:1;stroke:none" />
    <path
       d="m 227,171 c 11.04948,7.27822 15.79926,19.13195 17,32 -7,-2.57638 -14,-5.29005 -21,-6 2.87288,-6.81921 3.77907,-15.99845 4,-26 z"
       transform="translate(233,352.36218)"
       id="path3034"
       style="fill:#28332c;fill-opacity:1;stroke:none" />
    <path
       d="m 226,145 c 0.46167,8.12833 1.04445,16.37779 1,24 10.92139,-4.60771 16.92461,-5.52679 25,-8 -6.02658,-10.76881 -15.46873,-14.50555 -26,-16 z"
       transform="translate(233,352.36218)"
       id="path3036"
       style="fill:#28332c;fill-opacity:1;stroke:none" />
    <path
       d="m 325,594.36218 9,-6 c -4.24516,-2.47796 -7.81984,-4.78829 -11,-7 0.34566,4.11933 0.1605,7.88478 2,13 z"
       id="path3028-4"
       style="fill:#28332c;fill-opacity:1;stroke:none" />
    <path
       d="m 309,566.36218 c 0.22519,6.21629 0.51006,12.31322 1,18 4.4595,-1.05763 8.84841,-2.15762 12,-4 -4.68329,-4.49169 -8.83619,-9.24857 -13,-14 z"
       id="path3030-0"
       style="fill:#28332c;fill-opacity:1;stroke:none" />
    <path
       d="m 295,569.36218 c 0.01,-7.63166 1.16754,-13.7581 3,-19 3.05727,5.16667 6.38225,10.33333 10.5,15.5 z"
       id="path3032-9"
       style="fill:#28332c;fill-opacity:1;stroke:none" />
    <path
       d="m 293,523.36218 c -11.04948,7.27822 -15.79926,19.13195 -17,32 7,-2.57638 14,-5.29005 21,-6 -2.87288,-6.81921 -3.77907,-15.99845 -4,-26 z"
       id="path3034-4"
       style="fill:#28332c;fill-opacity:1;stroke:none" />
    <path
       d="m 294,497.36218 c -0.46167,8.12833 -1.04445,16.37779 -1,24 -10.92139,-4.60771 -16.92461,-5.52679 -25,-8 6.02658,-10.76881 15.46873,-14.50555 26,-16 z"
       id="path3036-8"
       style="fill:#28332c;fill-opacity:1;stroke:none" />
  </g>
</svg>
